<svg width="34" height="34" viewBox="0 0 34 34" fill="none" xmlns="http://www.w3.org/2000/svg">
<circle cx="17" cy="17" r="17" fill="white"/>
<path d="M16.88 27.008L16.496 26.688C8.24 19.968 6 17.6 6 13.76C6 10.56 8.56 8 11.76 8C14.384 8 15.856 9.472 16.88 10.624C17.904 9.472 19.376 8 22 8C25.2 8 27.76 10.56 27.76 13.76C27.76 17.6 25.52 19.968 17.264 26.688L16.88 27.008ZM9.27176 18.5C6.77576 18.5 7.28 11.264 7.28 13.76C7.28 17.024 9.328 19.2 16.88 25.344C20.5 17.5 26.48 17.024 26.48 13.76C26.48 11.264 27.496 18.5 25 18.5C22.76 18.5 22.5108 21.4287 23.5 20.5L16.88 25.344L12.6607 23.5C11.7007 22.412 10.76 20.0713 9.27176 18.5Z" fill="#D96998"/>
</svg>
