<svg width="34" height="34" viewBox="0 0 34 34" fill="none" xmlns="http://www.w3.org/2000/svg">
<circle cx="17" cy="17" r="17" fill="white"/>
<path d="M16.88 27.008L16.496 26.688C8.24 19.968 6 17.6 6 13.76C6 10.56 8.56 8 11.76 8C14.384 8 15.856 9.472 16.88 10.624C17.904 9.472 19.376 8 22 8C25.2 8 27.76 10.56 27.76 13.76C27.76 17.6 25.52 19.968 17.264 26.688L16.88 27.008ZM11.76 9.28C9.264 9.28 7.28 11.264 7.28 13.76C7.28 17.024 9.328 19.2 16.88 25.344C24.432 19.2 26.48 17.024 26.48 13.76C26.48 11.264 24.496 9.28 22 9.28C19.76 9.28 18.544 10.624 17.584 11.712L16.88 12.544L16.176 11.712C15.216 10.624 14 9.28 11.76 9.28Z" fill="#D96998"/>
</svg>
