<svg width="14" height="14" viewBox="0 0 14 14" fill="none" xmlns="http://www.w3.org/2000/svg">
<path d="M7 2.86364C7.50909 2.86364 7.95455 2.41818 7.95455 1.90909C7.95455 1.71818 7.89091 1.59091 7.82727 1.4L7 0L6.17273 1.4C6.10909 1.52727 6.04545 1.71818 6.04545 1.90909C6.04545 2.41818 6.49091 2.86364 7 2.86364ZM11.1364 4.45455H7.63636V3.5H6.36364V4.45455H2.86364C1.27273 4.45455 0 5.72727 0 7.31818C0 8.33636 0.509091 9.16364 1.27273 9.67273V14H12.7273V9.67273C13.4909 9.16366 14 8.27273 14 7.31818C14 5.72727 12.7273 4.45455 11.1364 4.45455ZM11.1364 8.90909C10.6909 8.90909 10.3091 8.71818 9.99091 8.46364L9.03636 7.50909L8.08182 8.46364C7.82727 8.71818 7.44545 8.90909 7 8.90909C6.55455 8.90909 6.17273 8.71818 5.85455 8.46364L4.9 7.50909L3.94545 8.46364C3.69091 8.71818 3.30909 8.90909 2.86364 8.90909C1.97273 8.90909 1.27273 8.20909 1.27273 7.31818C1.27273 6.42727 1.97273 5.72727 2.86364 5.72727H11.1364C12.0273 5.72727 12.7273 6.42727 12.7273 7.31818C12.7273 8.20909 12.0273 8.90909 11.1364 8.90909Z" fill="#BEBBBB" fill-opacity="0.81"/>
</svg>
