<svg width="36" height="36" viewBox="0 0 36 36" fill="none" xmlns="http://www.w3.org/2000/svg">
<path d="M18 36C27.936 36 36 27.936 36 18C36 8.064 27.936 0 18 0C8.064 0 0 8.064 0 18C0 27.936 8.064 36 18 36ZM17.8765 8.9985C20.1475 8.9985 22.2385 9.798 23.902 11.343L21.463 13.71C20.5045 12.7725 19.192 12.324 17.8765 12.324C14.7625 12.324 12.2725 14.901 12.2725 17.9925C12.2725 21.084 14.755 23.661 17.8765 23.661C20.242 23.661 22.5865 22.275 22.9645 19.7925H17.8765V16.701H26.362C26.4565 17.1945 26.5 17.688 26.5 18.2025C26.5 23.3415 23.0515 26.9985 17.8765 26.9985V27C12.883 27 8.875 22.971 8.875 17.9985C8.875 13.026 12.883 8.9985 17.8765 8.9985Z" fill="white"/>
</svg>
