<svg width="25" height="23" viewBox="0 0 25 23" fill="none" xmlns="http://www.w3.org/2000/svg">
<path d="M24.6191 11.2756C24.5528 11.1231 24.4579 10.9843 24.337 10.8681L20.4377 7.11904C19.9294 6.6315 19.1077 6.6315 18.5993 7.11904C18.091 7.6078 18.091 8.39911 18.5993 8.88664L20.2804 10.503H13.0177C12.2987 10.503 11.7175 11.063 11.7175 11.7531C11.7175 12.4431 12.2987 13.0031 13.0177 13.0031H20.2804L18.5993 14.6195C18.0909 15.1083 18.0909 15.8996 18.5993 16.3871C18.8528 16.6321 19.1856 16.7534 19.5185 16.7534C19.8514 16.7534 20.1842 16.6322 20.4377 16.3871L24.337 12.6381C24.4579 12.523 24.5528 12.3843 24.6191 12.2305C24.7503 11.9256 24.7503 11.5806 24.6191 11.2756Z" fill="white"/>
<path fill-rule="evenodd" clip-rule="evenodd" d="M6.06498 12.1049C5.74006 9.37792 8.14089 6.94356 11.4274 6.66759C13.13 6.52462 14.7363 6.98899 15.9343 7.84894C15.9155 6.604 15.8562 6.00934 15.7478 4.92353C15.6508 3.95096 15.5144 2.58434 15.3327 0.00340347C7.02143 0.76103 -1.29732 8.76673 0.281512 16.0828C0.403086 17.021 2.0266 20.6342 5.30178 22.0437L6.01101 22.1912L6.97837 21.9029C7.6487 21.7031 11.6691 20.1653 14.0911 16.2569C13.6225 16.4014 13.1244 16.4992 12.6041 16.5429C9.31755 16.8188 6.38991 14.8319 6.06498 12.1049Z" fill="white"/>
</svg>
