<svg width="589" height="213" viewBox="0 0 589 213" fill="none" xmlns="http://www.w3.org/2000/svg">
<path d="M589 0.0380402C363 227.038 203.5 212 0.5 212L0.500019 0.0380199L589 0.0380402Z" fill="url(#paint0_linear)"/>
<path d="M193.5 100H188.104L178.383 83.4063V100H173.338V74.793H178.734L188.455 91.4043V74.793H193.5V100ZM215.631 100H214.471L212.607 97.416C212.15 97.8262 211.664 98.2129 211.148 98.5762C210.645 98.9278 210.111 99.2383 209.549 99.5078C208.986 99.7657 208.406 99.9707 207.809 100.123C207.223 100.275 206.625 100.352 206.016 100.352C204.691 100.352 203.443 100.129 202.271 99.6836C201.111 99.2383 200.092 98.5938 199.213 97.75C198.346 96.8946 197.66 95.8516 197.156 94.6211C196.652 93.3907 196.4 91.9903 196.4 90.42C196.4 88.9551 196.652 87.6133 197.156 86.3946C197.66 85.1641 198.346 84.1094 199.213 83.2305C200.092 82.3516 201.111 81.6719 202.271 81.1914C203.443 80.6992 204.691 80.4532 206.016 80.4532C206.625 80.4532 207.229 80.5293 207.826 80.6817C208.424 80.834 209.004 81.045 209.566 81.3145C210.129 81.584 210.662 81.9004 211.166 82.2637C211.682 82.627 212.162 83.0196 212.607 83.4414L214.471 81.209H215.631V100ZM210.797 90.42C210.797 89.7637 210.668 89.1309 210.41 88.5215C210.164 87.9004 209.824 87.3555 209.391 86.8867C208.957 86.4063 208.447 86.0254 207.861 85.7442C207.287 85.4512 206.672 85.3047 206.016 85.3047C205.359 85.3047 204.738 85.416 204.152 85.6387C203.578 85.8614 203.074 86.1895 202.641 86.6231C202.219 87.0567 201.885 87.5957 201.639 88.2403C201.393 88.8731 201.27 89.5996 201.27 90.42C201.27 91.2403 201.393 91.9727 201.639 92.6172C201.885 93.25 202.219 93.7832 202.641 94.2168C203.074 94.6504 203.578 94.9785 204.152 95.2012C204.738 95.4239 205.359 95.5352 206.016 95.5352C206.672 95.5352 207.287 95.3946 207.861 95.1133C208.447 94.8203 208.957 94.4395 209.391 93.9707C209.824 93.4903 210.164 92.9453 210.41 92.336C210.668 91.7149 210.797 91.0762 210.797 90.42ZM228.744 100C227.584 100 226.494 99.7832 225.475 99.3496C224.455 98.9043 223.559 98.3008 222.785 97.5391C222.023 96.7657 221.42 95.8692 220.975 94.8496C220.541 93.8301 220.324 92.7403 220.324 91.5801V85.9903H217.986V81.209H220.324V73.6856H225.105V81.209H232.383V85.9903H225.105V91.5801C225.105 92.084 225.199 92.5586 225.387 93.0039C225.574 93.4375 225.832 93.8184 226.16 94.1465C226.488 94.4746 226.875 94.7383 227.32 94.9375C227.766 95.125 228.24 95.2188 228.744 95.2188H232.383V100H228.744ZM248.924 97.8028C248.537 98.1543 248.121 98.4883 247.676 98.8047C247.242 99.1094 246.785 99.3789 246.305 99.6133C245.824 99.836 245.326 100.012 244.811 100.141C244.307 100.281 243.791 100.352 243.264 100.352C242.104 100.352 241.014 100.147 239.994 99.7364C238.975 99.3262 238.078 98.7461 237.305 97.9961C236.543 97.2344 235.939 96.3145 235.494 95.2364C235.061 94.1465 234.844 92.9278 234.844 91.5801V81.1739H239.625V91.5801C239.625 92.2129 239.719 92.7813 239.906 93.2852C240.105 93.7774 240.369 94.1934 240.697 94.5332C241.025 94.8731 241.406 95.1309 241.84 95.3067C242.285 95.4825 242.76 95.5703 243.264 95.5703C243.756 95.5703 244.219 95.459 244.652 95.2364C245.098 95.002 245.484 94.6973 245.812 94.3223C246.141 93.9473 246.398 93.5254 246.586 93.0567C246.773 92.5762 246.867 92.084 246.867 91.5801V81.1739H251.666V100H250.506L248.924 97.8028ZM260.139 100H255.34V81.1739H256.5L258.082 83.4063C258.855 82.7032 259.734 82.1641 260.719 81.7891C261.703 81.4024 262.723 81.209 263.777 81.209H268.014V85.9903H263.777C263.273 85.9903 262.799 86.084 262.354 86.2715C261.908 86.459 261.521 86.7168 261.193 87.045C260.865 87.3731 260.607 87.7598 260.42 88.2051C260.232 88.6504 260.139 89.125 260.139 89.6289V100ZM277.383 95.3946C277.57 95.4532 277.758 95.4942 277.945 95.5176C278.133 95.5293 278.32 95.5352 278.508 95.5352C278.977 95.5352 279.428 95.4707 279.861 95.3418C280.295 95.2129 280.699 95.0313 281.074 94.7969C281.461 94.5508 281.801 94.2578 282.094 93.918C282.398 93.5664 282.645 93.1797 282.832 92.7578L286.348 96.291C285.902 96.9239 285.387 97.4922 284.801 97.9961C284.227 98.5 283.6 98.9278 282.92 99.2793C282.252 99.6309 281.543 99.8946 280.793 100.07C280.055 100.258 279.293 100.352 278.508 100.352C277.184 100.352 275.936 100.105 274.764 99.6133C273.604 99.1211 272.584 98.4356 271.705 97.5567C270.838 96.6778 270.152 95.6348 269.648 94.4278C269.145 93.209 268.893 91.8731 268.893 90.42C268.893 88.9317 269.145 87.5723 269.648 86.3418C270.152 85.1114 270.838 84.0625 271.705 83.1953C272.584 82.3282 273.604 81.6543 274.764 81.1739C275.936 80.6934 277.184 80.4532 278.508 80.4532C279.293 80.4532 280.061 80.5469 280.811 80.7344C281.561 80.9219 282.27 81.1914 282.938 81.543C283.617 81.8946 284.25 82.3282 284.836 82.8438C285.422 83.3477 285.938 83.916 286.383 84.5489L277.383 95.3946ZM279.844 85.4981C279.621 85.416 279.398 85.3633 279.176 85.3399C278.965 85.3164 278.742 85.3047 278.508 85.3047C277.852 85.3047 277.23 85.4278 276.645 85.6739C276.07 85.9082 275.566 86.2481 275.133 86.6934C274.711 87.1387 274.377 87.6778 274.131 88.3106C273.885 88.9317 273.762 89.6348 273.762 90.42C273.762 90.5957 273.768 90.795 273.779 91.0176C273.803 91.2403 273.832 91.4688 273.867 91.7032C273.914 91.9258 273.967 92.1426 274.025 92.3535C274.084 92.5645 274.16 92.752 274.254 92.916L279.844 85.4981ZM309.48 92.4414C309.48 93.4844 309.281 94.4629 308.883 95.377C308.484 96.291 307.939 97.0938 307.248 97.7852C306.568 98.4649 305.771 99.0039 304.857 99.4024C303.943 99.8008 302.965 100 301.922 100H289.318V74.793H301.922C302.965 74.793 303.943 74.9922 304.857 75.3907C305.771 75.7891 306.568 76.334 307.248 77.0254C307.939 77.7051 308.484 78.502 308.883 79.416C309.281 80.3301 309.48 81.3086 309.48 82.3516C309.48 82.8203 309.416 83.3008 309.287 83.793C309.158 84.2852 308.977 84.7598 308.742 85.2168C308.508 85.6739 308.227 86.0899 307.898 86.4649C307.57 86.8399 307.207 87.1504 306.809 87.3965C307.219 87.6192 307.588 87.9239 307.916 88.3106C308.244 88.6856 308.525 89.1016 308.76 89.5586C308.994 90.0157 309.17 90.4961 309.287 91C309.416 91.4922 309.48 91.9727 309.48 92.4414ZM294.363 94.9551H301.922C302.273 94.9551 302.602 94.8907 302.906 94.7617C303.211 94.6328 303.475 94.4571 303.697 94.2344C303.932 94 304.113 93.7305 304.242 93.4258C304.371 93.1211 304.436 92.793 304.436 92.4414C304.436 92.0899 304.371 91.7617 304.242 91.4571C304.113 91.1524 303.932 90.8887 303.697 90.666C303.475 90.4317 303.211 90.25 302.906 90.1211C302.602 89.9922 302.273 89.9278 301.922 89.9278H294.363V94.9551ZM294.363 84.8828H301.922C302.273 84.8828 302.602 84.8184 302.906 84.6895C303.211 84.5606 303.475 84.3848 303.697 84.1621C303.932 83.9278 304.113 83.6582 304.242 83.3535C304.371 83.0371 304.436 82.7032 304.436 82.3516C304.436 82 304.371 81.6719 304.242 81.3672C304.113 81.0625 303.932 80.7989 303.697 80.5762C303.475 80.3418 303.211 80.1602 302.906 80.0313C302.602 79.9024 302.273 79.8379 301.922 79.8379H294.363V84.8828ZM320.273 95.3946C320.461 95.4532 320.648 95.4942 320.836 95.5176C321.023 95.5293 321.211 95.5352 321.398 95.5352C321.867 95.5352 322.318 95.4707 322.752 95.3418C323.186 95.2129 323.59 95.0313 323.965 94.7969C324.352 94.5508 324.691 94.2578 324.984 93.918C325.289 93.5664 325.535 93.1797 325.723 92.7578L329.238 96.291C328.793 96.9239 328.277 97.4922 327.691 97.9961C327.117 98.5 326.49 98.9278 325.811 99.2793C325.143 99.6309 324.434 99.8946 323.684 100.07C322.945 100.258 322.184 100.352 321.398 100.352C320.074 100.352 318.826 100.105 317.654 99.6133C316.494 99.1211 315.475 98.4356 314.596 97.5567C313.729 96.6778 313.043 95.6348 312.539 94.4278C312.035 93.209 311.783 91.8731 311.783 90.42C311.783 88.9317 312.035 87.5723 312.539 86.3418C313.043 85.1114 313.729 84.0625 314.596 83.1953C315.475 82.3282 316.494 81.6543 317.654 81.1739C318.826 80.6934 320.074 80.4532 321.398 80.4532C322.184 80.4532 322.951 80.5469 323.701 80.7344C324.451 80.9219 325.16 81.1914 325.828 81.543C326.508 81.8946 327.141 82.3282 327.727 82.8438C328.312 83.3477 328.828 83.916 329.273 84.5489L320.273 95.3946ZM322.734 85.4981C322.512 85.416 322.289 85.3633 322.066 85.3399C321.855 85.3164 321.633 85.3047 321.398 85.3047C320.742 85.3047 320.121 85.4278 319.535 85.6739C318.961 85.9082 318.457 86.2481 318.023 86.6934C317.602 87.1387 317.268 87.6778 317.021 88.3106C316.775 88.9317 316.652 89.6348 316.652 90.42C316.652 90.5957 316.658 90.795 316.67 91.0176C316.693 91.2403 316.723 91.4688 316.758 91.7032C316.805 91.9258 316.857 92.1426 316.916 92.3535C316.975 92.5645 317.051 92.752 317.145 92.916L322.734 85.4981ZM350.543 90.42C350.543 91.8965 350.291 93.2442 349.787 94.4629C349.283 95.6817 348.598 96.7305 347.73 97.6094C346.863 98.4766 345.844 99.1504 344.672 99.6309C343.512 100.111 342.264 100.352 340.928 100.352C339.604 100.352 338.355 100.105 337.184 99.6133C336.023 99.1211 335.004 98.4356 334.125 97.5567C333.258 96.6778 332.572 95.6348 332.068 94.4278C331.564 93.209 331.312 91.8731 331.312 90.42V73.6856H336.129V82.4746C336.387 82.1465 336.697 81.8535 337.061 81.5957C337.436 81.3379 337.834 81.127 338.256 80.9629C338.689 80.7989 339.135 80.6758 339.592 80.5938C340.049 80.5 340.494 80.4532 340.928 80.4532C342.264 80.4532 343.512 80.7051 344.672 81.209C345.844 81.7012 346.863 82.3926 347.73 83.2832C348.598 84.1739 349.283 85.2285 349.787 86.4473C350.291 87.6543 350.543 88.9785 350.543 90.42ZM345.709 90.42C345.709 89.6934 345.58 89.0196 345.322 88.3985C345.076 87.7657 344.736 87.2207 344.303 86.7637C343.869 86.3067 343.359 85.9492 342.773 85.6914C342.199 85.4336 341.584 85.3047 340.928 85.3047C340.271 85.3047 339.65 85.4512 339.064 85.7442C338.49 86.0254 337.986 86.4063 337.553 86.8867C337.119 87.3555 336.779 87.9004 336.533 88.5215C336.287 89.1309 336.164 89.7637 336.164 90.42C336.164 91.1465 336.287 91.8203 336.533 92.4414C336.779 93.0625 337.119 93.6016 337.553 94.0586C337.986 94.5157 338.49 94.8789 339.064 95.1485C339.65 95.4063 340.271 95.5352 340.928 95.5352C341.584 95.5352 342.199 95.4063 342.773 95.1485C343.359 94.8789 343.869 94.5157 344.303 94.0586C344.736 93.6016 345.076 93.0625 345.322 92.4414C345.58 91.8203 345.709 91.1465 345.709 90.42ZM360.703 95.3946C360.891 95.4532 361.078 95.4942 361.266 95.5176C361.453 95.5293 361.641 95.5352 361.828 95.5352C362.297 95.5352 362.748 95.4707 363.182 95.3418C363.615 95.2129 364.02 95.0313 364.395 94.7969C364.781 94.5508 365.121 94.2578 365.414 93.918C365.719 93.5664 365.965 93.1797 366.152 92.7578L369.668 96.291C369.223 96.9239 368.707 97.4922 368.121 97.9961C367.547 98.5 366.92 98.9278 366.24 99.2793C365.572 99.6309 364.863 99.8946 364.113 100.07C363.375 100.258 362.613 100.352 361.828 100.352C360.504 100.352 359.256 100.105 358.084 99.6133C356.924 99.1211 355.904 98.4356 355.025 97.5567C354.158 96.6778 353.473 95.6348 352.969 94.4278C352.465 93.209 352.213 91.8731 352.213 90.42C352.213 88.9317 352.465 87.5723 352.969 86.3418C353.473 85.1114 354.158 84.0625 355.025 83.1953C355.904 82.3282 356.924 81.6543 358.084 81.1739C359.256 80.6934 360.504 80.4532 361.828 80.4532C362.613 80.4532 363.381 80.5469 364.131 80.7344C364.881 80.9219 365.59 81.1914 366.258 81.543C366.938 81.8946 367.57 82.3282 368.156 82.8438C368.742 83.3477 369.258 83.916 369.703 84.5489L360.703 95.3946ZM363.164 85.4981C362.941 85.416 362.719 85.3633 362.496 85.3399C362.285 85.3164 362.062 85.3047 361.828 85.3047C361.172 85.3047 360.551 85.4278 359.965 85.6739C359.391 85.9082 358.887 86.2481 358.453 86.6934C358.031 87.1387 357.697 87.6778 357.451 88.3106C357.205 88.9317 357.082 89.6348 357.082 90.42C357.082 90.5957 357.088 90.795 357.1 91.0176C357.123 91.2403 357.152 91.4688 357.188 91.7032C357.234 91.9258 357.287 92.1426 357.346 92.3535C357.404 92.5645 357.48 92.752 357.574 92.916L363.164 85.4981ZM361.688 79.0117L359.701 76.3926L364.922 71.5235L367.805 75.1973L361.688 79.0117Z" fill="white"/>
<path d="M95.2718 60.7802C95.9407 73.3256 102.064 76.8051 102.064 76.8051C104.636 69.1636 108.692 59.9607 137.673 58.7423C137.381 90.1937 117.549 119.867 92.2272 119.668C92.2272 119.668 85.0053 120.034 77.533 103.313C77.533 103.313 75.4895 104.709 72.3325 122.316C68.1538 122.283 52.083 119.173 44.2251 106.207C43.8528 105.592 43.5918 105.172 43.1656 104.296C43.1661 103.708 43.4357 102.863 43.5947 102.109C46.9878 86.023 55.7856 64.9971 95.2718 60.7802Z" fill="white"/>
<defs>
<linearGradient id="paint0_linear" x1="294.75" y1="0.0474157" x2="294.715" y2="203.059" gradientUnits="userSpaceOnUse">
<stop offset="0.0376204" stop-color="#92BF2A"/>
<stop offset="0.776042" stop-color="#6D9B00"/>
<stop offset="1" stop-color="#6D9B00"/>
</linearGradient>
</defs>
</svg>
