<svg width="22" height="10" viewBox="0 0 22 10" fill="none" xmlns="http://www.w3.org/2000/svg">
<rect y="5.66667" width="1.33333" height="4.66667" rx="0.666667" transform="rotate(-90 0 5.66667)" fill="#B6CD80"/>
<path d="M3.33325 5C3.33325 4.63181 3.63173 4.33333 3.99992 4.33333C4.36811 4.33333 4.66659 4.63181 4.66659 5V8.33334C4.66659 8.70153 4.36811 9 3.99992 9C3.63173 9 3.33325 8.70152 3.33325 8.33333V5Z" fill="#B6CD80"/>
<rect x="8" y="4.33333" width="1.33333" height="4.66667" rx="0.666667" transform="rotate(90 8 4.33333)" fill="#B6CD80"/>
<path d="M4.66675 5C4.66675 5.36819 4.36827 5.66667 4.00008 5.66667C3.63189 5.66667 3.33341 5.36819 3.33341 5L3.33341 1.66666C3.33341 1.29847 3.63189 0.999999 4.00008 0.999999C4.36827 0.999999 4.66675 1.29848 4.66675 1.66667L4.66675 5Z" fill="#B6CD80"/>
<rect x="10.4919" y="1.43147" width="2" height="7" rx="1" transform="rotate(-45.7035 10.4919 1.43147)" fill="#B6CD80"/>
<path d="M14.7689 4.20759C15.1546 3.8123 15.7877 3.80453 16.183 4.19023C16.5783 4.57593 16.5861 5.20905 16.2004 5.60434L12.7085 9.18301C12.3228 9.5783 11.6897 9.58608 11.2944 9.20038C10.8991 8.81468 10.8914 8.18156 11.2771 7.78627L14.7689 4.20759Z" fill="#B6CD80"/>
<rect x="15.4919" y="1.43147" width="2" height="7" rx="1" transform="rotate(-45.7035 15.4919 1.43147)" fill="#B6CD80"/>
<path d="M19.7689 4.20759C20.1546 3.8123 20.7877 3.80453 21.183 4.19023C21.5783 4.57593 21.5861 5.20905 21.2004 5.60434L17.7085 9.18301C17.3228 9.5783 16.6897 9.58608 16.2944 9.20038C15.8991 8.81468 15.8914 8.18156 16.2771 7.78627L19.7689 4.20759Z" fill="#B6CD80"/>
</svg>
