<svg width="21" height="10" viewBox="0 0 21 10" fill="none" xmlns="http://www.w3.org/2000/svg">
<rect x="9.49194" y="1.43147" width="2" height="7" rx="1" transform="rotate(-45.7035 9.49194 1.43147)" fill="#B6CD80"/>
<path d="M13.7689 4.20759C14.1546 3.8123 14.7877 3.80453 15.183 4.19023C15.5783 4.57593 15.5861 5.20905 15.2004 5.60434L11.7085 9.18301C11.3228 9.5783 10.6897 9.58608 10.2944 9.20038C9.89913 8.81468 9.89135 8.18156 10.2771 7.78627L13.7689 4.20759Z" fill="#B6CD80"/>
<rect x="14.4919" y="1.43147" width="2" height="7" rx="1" transform="rotate(-45.7035 14.4919 1.43147)" fill="#B6CD80"/>
<path d="M18.7689 4.20759C19.1546 3.8123 19.7877 3.80453 20.183 4.19023C20.5783 4.57593 20.5861 5.20905 20.2004 5.60434L16.7085 9.18301C16.3228 9.5783 15.6897 9.58608 15.2944 9.20038C14.8991 8.81468 14.8914 8.18156 15.2771 7.78627L18.7689 4.20759Z" fill="#B6CD80"/>
<rect y="5" width="1" height="7" rx="0.5" transform="rotate(-90 0 5)" fill="#B6CD80"/>
</svg>
